<svg width="62" height="68" viewBox="0 0 62 68" fill="none" xmlns="http://www.w3.org/2000/svg">
<rect x="0.5" y="5.30005" width="61" height="61" rx="10.5" fill="#00FF00" stroke="#220044"/>
<path d="M6.45624 60.6001V58.5493L8.29608 58.1626V45.9985L6.45624 45.6001V43.5376H8.29608H13.9445C15.468 43.5376 16.8117 43.897 17.9758 44.6157C19.1398 45.3267 20.0461 46.3149 20.6945 47.5806C21.3508 48.8384 21.6789 50.2837 21.6789 51.9165V52.2329C21.6789 53.8501 21.3547 55.2915 20.7062 56.5571C20.0656 57.8149 19.1672 58.8032 18.0109 59.522C16.8547 60.2407 15.5148 60.6001 13.9914 60.6001H6.45624ZM11.718 57.9868H13.8156C14.7609 57.9868 15.5617 57.7407 16.218 57.2485C16.8742 56.7485 17.3742 56.0649 17.718 55.1978C18.0695 54.3306 18.2453 53.3423 18.2453 52.2329V51.9048C18.2453 50.7798 18.0695 49.7876 17.718 48.9282C17.3742 48.061 16.8742 47.3853 16.218 46.9009C15.5617 46.4087 14.7609 46.1626 13.8156 46.1626H11.718V57.9868ZM23.1672 60.6001V58.5493L24.9836 58.1978V45.9517L23.1672 45.6001V43.5376H36.4094V48.1431H33.7844L33.632 46.1743H28.4055V50.4634H34.1828V53.1001H28.4055V57.9751H33.9133L34.0656 55.936H36.6672V60.6001H23.1672ZM45.2453 60.6001L39.7609 45.7876L38.2375 45.6001V43.5376H45.0226V45.6001L43.4875 45.8345L46.8391 55.9009L47.0969 56.8384H47.1672L47.4133 55.9243L50.7648 45.8345L48.9719 45.6001V43.5376H55.4406V45.6001L53.8937 45.7876L48.7492 60.6001H45.2453Z" fill="#220044"/>
<path d="M6.78436 37V33.9238L9.50897 33.3965V15.0273L6.78436 14.5V11.4062H9.50897H14.6418H17.7355V14.5L14.6418 15.0273V33.0625H21.8664L22.1125 29.3184H26.0324V37H6.78436ZM27.8781 37V33.9238L30.6027 33.3965V15.0273L27.8781 14.5V11.4062H30.6027H35.8058L46.9504 29.1602L47.0558 29.1426V15.0273L43.7863 14.5V11.4062H51.6437H54.3859V14.5L51.6437 15.0273V37H46.6867L35.2961 19.4219L35.1906 19.4395V33.3965L38.4777 33.9238V37H27.8781Z" fill="#220044"/>
</svg>
